HIERARCHY
ROOT Hips
{
	OFFSET 0.000000 0.000000 0.000000 
	CHANNELS 6 Xposition Yposition Zposition Zrotation Yrotation Xrotation
	JOINT LeftUpLeg
	{
		OFFSET 1.363060 -1.794630 0.839290 
		CHANNELS 3 Zrotation Yrotation Xrotation
		JOINT LeftLeg
		{
			OFFSET 2.448110 -6.726130 0.000000 
			CHANNELS 3 Zrotation Yrotation Xrotation
			JOINT LeftFoot
			{
				OFFSET 2.562200 -7.039590 0.000000 
				CHANNELS 3 Zrotation Yrotation Xrotation
				JOINT LeftToeBase
				{
					OFFSET 0.157640 -0.433110 2.322550 
					CHANNELS 3 Zrotation Yrotation Xrotation
					End Site
					{
						OFFSET 0.000000 0.000000 0.000000 
					}
				}
			}
		}
	}
	JOINT RightUpLeg
	{
		OFFSET -1.305520 -1.794630 0.839290 
		CHANNELS 3 Zrotation Yrotation Xrotation
		JOINT RightLeg
		{
			OFFSET -2.542530 -6.985550 0.000000 
			CHANNELS 3 Zrotation Yrotation Xrotation
			JOINT RightFoot
			{
				OFFSET -2.568260 -7.056230 0.000000 
				CHANNELS 3 Zrotation Yrotation Xrotation
				JOINT RightToeBase
				{
					OFFSET -0.164730 -0.452590 2.363150 
					CHANNELS 3 Zrotation Yrotation Xrotation
					End Site
					{
						OFFSET 0.000000 0.000000 0.000000 
					}
				}
			}
		}
	}
	JOINT Spine
	{
		OFFSET 0.028270 2.035590 -0.193380 
		CHANNELS 3 Zrotation Yrotation Xrotation
		JOINT Spine1
		{
			OFFSET 0.056720 2.048850 -0.042750 
			CHANNELS 3 Zrotation Yrotation Xrotation
			JOINT Neck1
			{
				OFFSET -0.054170 1.746240 0.172020 
				CHANNELS 3 Zrotation Yrotation Xrotation
				JOINT Head
				{
					OFFSET 0.104070 1.761360 -0.123970 
					CHANNELS 3 Zrotation Yrotation Xrotation
					End Site
					{
						OFFSET 0.000000 0.000000 0.000000 
					}
				}
			}
			JOINT LeftArm
			{
				OFFSET 3.362410 1.200890 -0.311210 
				CHANNELS 3 Zrotation Yrotation Xrotation
				JOINT LeftForeArm
				{
					OFFSET 4.983000 -0.000000 -0.000000 
					CHANNELS 3 Zrotation Yrotation Xrotation
					JOINT LeftHand
					{
						OFFSET 3.483560 -0.000000 -0.000000 
						CHANNELS 3 Zrotation Yrotation Xrotation
						JOINT LeftHandIndex1
						{
							OFFSET 0.715260 -0.000000 -0.000000 
							CHANNELS 3 Zrotation Yrotation Xrotation
							End Site
							{
								OFFSET 0.000000 0.000000 0.000000 
							}
						}
					}
				}
			}
			JOINT RightArm
			{
				OFFSET -3.136600 1.374050 -0.404650 
				CHANNELS 3 Zrotation Yrotation Xrotation
				JOINT RightForeArm
				{
					OFFSET -5.241900 -0.000000 -0.000000 
					CHANNELS 3 Zrotation Yrotation Xrotation
					JOINT RightHand
					{
						OFFSET -3.444170 -0.000000 -0.000000 
						CHANNELS 3 Zrotation Yrotation Xrotation
						JOINT RightHandIndex1
						{
							OFFSET -0.622530 -0.000000 -0.000000 
							CHANNELS 3 Zrotation Yrotation Xrotation
							End Site
							{
								OFFSET 0.000000 0.000000 0.000000 
							}
						}
					}
				}
			}
		}
	}
}
MOTION
Frames: 18
Frame Time: 0.041667
-0.003309 17.435727 -0.912103 1.924445 -0.088443 4.470687 -25.428168 -9.945392 -8.911980 1.223170 6.983932 23.759417 -0.159178 4.748004 -12.759590 0.622800 -5.050300 -14.052100 24.797217 10.674075 -9.941311 -3.003479 -8.273157 28.055592 -0.001607 -7.320670 -16.954609 -0.414600 4.133300 -11.451900 0.638779 3.417299 -1.862508 -1.564263 1.862344 -1.699479 3.848958 -6.665579 5.918465 1.952200 -3.331000 2.149200 -77.510926 9.840659 64.992512 78.116964 -57.789651 -48.334288 1.245237 0.573506 -8.406308 -7.125000 0.000000 0.000000 77.611921 -10.851410 52.713269 -92.265094 57.281378 -56.152859 -0.545079 -1.440097 -35.113404 7.125000 0.000000 0.000000 
-0.003892 17.433684 -0.914049 1.958125 -0.083912 4.426552 -25.458087 -9.946313 -8.877105 1.227153 6.988981 23.780479 -0.148065 4.694980 -12.775081 0.609500 -4.996900 -13.899700 24.766170 10.682850 -9.917141 -3.011566 -8.286590 28.100761 -0.000702 -7.346028 -16.983297 -0.399200 4.056600 -11.236000 0.641916 3.400532 -1.848008 -1.540293 1.852713 -1.694725 3.825513 -6.664672 5.876218 1.939500 -3.330400 2.117500 -77.490778 9.741596 65.018271 77.921786 -57.770738 -48.156232 1.234442 0.570402 -8.434426 -7.125000 0.000000 0.000000 77.546218 -10.579912 52.522229 -92.007286 57.318427 -55.917669 -0.550617 -1.441417 -35.052745 7.125000 0.000000 0.000000 
-0.003795 17.432418 -0.915119 1.904811 -0.068606 4.415826 -25.398894 -9.917838 -8.901953 1.233742 7.002693 23.817907 -0.146762 4.685372 -12.768979 0.633000 -5.090500 -14.166800 24.835244 10.655191 -9.909396 -3.016171 -8.293153 28.127964 -0.017629 -7.255971 -17.022335 -0.404100 4.081100 -11.304900 0.656772 3.389911 -1.847266 -1.545142 1.846884 -1.686549 3.778620 -6.677907 5.895623 1.914400 -3.338100 2.115700 -77.485361 9.664211 65.025099 77.705773 -57.750487 -47.960646 1.225071 0.561364 -8.395324 -7.125000 0.000000 0.000000 77.464840 -10.404256 52.321726 -91.920421 57.330744 -55.840650 -0.548637 -1.441116 -35.038956 7.125000 0.000000 0.000000 
-0.004184 17.433294 -0.916774 1.878238 -0.053809 4.456887 -25.372335 -9.897175 -8.993738 1.241883 7.024658 23.871915 -0.160080 4.759772 -12.771314 0.686600 -5.297600 -14.759500 24.864847 10.658373 -9.957893 -3.017670 -8.298717 28.140743 -0.027859 -7.207354 -17.054524 -0.406300 4.092300 -11.336400 0.664954 3.387228 -1.854205 -1.537386 1.845281 -1.665784 3.808956 -6.681282 5.960767 1.934300 -3.340400 2.164000 -77.485933 9.613292 65.008277 77.522220 -57.732270 -47.794451 1.225812 0.545745 -8.288434 -7.125000 0.000000 0.000000 77.397070 -10.243906 52.084145 -91.850513 57.339661 -55.780308 -0.547875 -1.440497 -35.070945 7.125000 0.000000 0.000000 
-0.005839 17.433197 -0.917941 1.906446 -0.088790 4.440445 -25.406167 -9.842838 -9.026625 1.252234 7.045272 23.933872 -0.171466 4.822094 -12.770828 0.718100 -5.415400 -15.097100 24.838339 10.688924 -9.937019 -3.017125 -8.296442 28.134471 -0.027130 -7.198839 -17.032670 -0.395300 4.036800 -11.180100 0.667837 3.388985 -1.849926 -1.497841 1.845693 -1.666113 3.846184 -6.667487 5.963642 1.961200 -3.333800 2.168900 -77.506277 9.540418 64.987904 77.304428 -57.710167 -47.595699 1.230650 0.544124 -8.254273 -7.125000 0.000000 0.000000 77.341897 -10.075040 51.866466 -91.805588 57.345311 -55.746638 -0.546588 -1.440117 -35.129111 7.125000 0.000000 0.000000 
-0.005936 17.432516 -0.919401 1.905839 -0.064257 4.433435 -25.405793 -9.867493 -9.060233 1.263535 7.069675 24.002770 -0.161067 4.780356 -12.798033 0.712900 -5.396000 -15.041500 24.838990 10.650781 -9.919885 -3.009967 -8.281126 28.089532 -0.024346 -7.194778 -16.998506 -0.396100 4.040800 -11.191500 0.669187 3.371780 -1.840368 -1.496135 1.836143 -1.639682 3.850560 -6.665516 5.951463 1.958700 -3.332000 2.162300 -77.493419 9.412800 64.962904 77.020795 -57.680323 -47.335394 1.230232 0.543820 -8.291044 -7.125000 0.000000 0.000000 77.301893 -9.887988 51.614692 -91.774563 57.350203 -55.725669 -0.544324 -1.439837 -35.185388 7.125000 0.000000 0.000000 
-0.006325 17.431348 -0.922612 1.907029 -0.009061 4.418172 -25.409969 -9.907728 -9.083934 1.272098 7.088568 24.054999 -0.169284 4.813109 -12.770001 0.743200 -5.506900 -15.360200 24.832695 10.650964 -9.923111 -3.001625 -8.267789 28.045233 -0.020064 -7.257089 -17.049037 -0.402200 4.071600 -11.278300 0.667168 3.359113 -1.830359 -1.505753 1.828623 -1.617497 3.858399 -6.677270 5.960275 1.955900 -3.337000 2.173800 -77.433914 9.278782 64.992781 76.791744 -57.653346 -47.122004 1.239422 0.549312 -8.347433 -7.125000 0.000000 0.000000 77.266594 -9.689097 51.334217 -91.660942 57.365912 -55.628568 -0.548082 -1.439357 -35.169979 7.125000 0.000000 0.000000 
-0.007882 17.429207 -0.926213 1.852308 0.075354 4.410835 -25.343303 -9.962120 -9.118806 1.279143 7.105602 24.097148 -0.178351 4.835711 -12.711643 0.754200 -5.546700 -15.474700 24.897475 10.713323 -9.964191 -2.995420 -8.264795 28.028560 -0.008267 -7.421202 -17.180036 -0.396500 4.043100 -11.198000 0.668457 3.338116 -1.837147 -1.537861 1.817252 -1.628537 3.893618 -6.701787 6.031800 1.966700 -3.348700 2.227300 -77.346385 9.171283 65.004158 76.643729 -57.632924 -46.980995 1.238737 0.563765 -8.528487 -7.125000 0.000000 0.000000 77.248119 -9.504795 51.078479 -91.514615 57.384405 -55.502268 -0.552161 -1.440736 -35.174138 7.125000 0.000000 0.000000 
-0.010315 17.428526 -0.929716 1.827137 0.115873 4.383241 -25.302729 -9.967425 -9.140590 1.287621 7.121590 24.141885 -0.163253 4.725878 -12.648564 0.703200 -5.360000 -14.938200 24.948758 10.727554 -9.939516 -2.998039 -8.268946 28.047690 0.008588 -7.526688 -17.170197 -0.391600 4.018000 -11.127400 0.678370 3.315870 -1.841904 -1.525501 1.805290 -1.655830 3.882332 -6.708966 6.081397 1.950800 -3.352200 2.256800 -77.318587 9.100525 64.897495 76.504338 -57.616206 -46.849158 1.219158 0.581152 -8.596595 -7.125000 0.000000 0.000000 77.198610 -9.312195 50.871191 -91.363344 57.402660 -55.369239 -0.550916 -1.442405 -35.176805 7.125000 0.000000 0.000000 
-0.011969 17.429013 -0.931468 1.859075 0.120423 4.380253 -25.328724 -9.999486 -9.159902 1.295096 7.136454 24.185138 -0.144930 4.623668 -12.639851 0.645600 -5.139900 -14.308100 24.931265 10.677664 -9.910653 -3.008463 -8.281170 28.095672 0.011330 -7.462760 -17.042118 -0.393800 4.029100 -11.158600 0.683980 3.283468 -1.845379 -1.487860 1.788217 -1.653185 3.834165 -6.693837 6.146517 1.920400 -3.345700 2.292200 -77.329024 9.021455 64.723611 76.264608 -57.590176 -46.626834 1.206106 0.589416 -8.489027 -7.125000 0.000000 0.000000 77.121236 -9.109382 50.680466 -91.160625 57.427896 -55.188864 -0.552595 -1.443386 -35.143104 7.125000 0.000000 0.000000 
-0.012748 17.428721 -0.933414 1.835813 0.120828 4.368025 -25.295670 -9.995552 -9.174685 1.298347 7.144731 24.207285 -0.141553 4.637697 -12.709239 0.674700 -5.252500 -14.630300 24.975885 10.707714 -9.890931 -3.021539 -8.303456 28.172165 0.014888 -7.475203 -17.025303 -0.399400 4.057700 -11.238900 0.698694 3.269042 -1.849168 -1.461792 1.780403 -1.663845 3.778261 -6.694793 6.159572 1.889600 -3.347300 2.292100 -77.323900 8.916330 64.564204 75.993706 -57.559883 -46.375902 1.198413 0.592562 -8.449258 -7.125000 0.000000 0.000000 77.045513 -8.962848 50.452350 -91.030104 57.443623 -55.074684 -0.556008 -1.441853 -35.092526 7.125000 0.000000 0.000000 
-0.013137 17.427845 -0.934874 1.783918 0.115554 4.347185 -25.232127 -9.979633 -9.180224 1.300571 7.150828 24.223090 -0.144441 4.688323 -12.786486 0.700700 -5.350500 -14.910900 25.046720 10.726743 -9.898772 -3.032153 -8.323311 28.238160 0.023196 -7.517438 -17.005172 -0.430100 4.208600 -11.664400 0.712220 3.253375 -1.860571 -1.459853 1.772236 -1.698072 3.749592 -6.677730 6.161709 1.872300 -3.339400 2.279400 -77.343382 8.843247 64.280805 75.692404 -57.527105 -46.096658 1.195285 0.589171 -8.404689 -7.125000 0.000000 0.000000 77.000638 -8.806003 50.193745 -90.844285 57.467265 -54.905978 -0.561080 -1.440681 -34.993696 7.125000 0.000000 0.000000 
-0.013818 17.427845 -0.935457 1.755155 0.122655 4.329968 -25.197182 -9.971308 -9.181059 1.303214 7.155321 24.235293 -0.174364 4.804436 -12.686988 0.761000 -5.571000 -15.544600 25.086232 10.732049 -9.894206 -3.037280 -8.332315 28.269893 0.031346 -7.557301 -16.983024 -0.443900 4.274700 -11.850900 0.712820 3.247999 -1.866010 -1.472158 1.768780 -1.706027 3.780133 -6.666984 6.207205 1.884400 -3.333800 2.300200 -77.323474 8.772645 63.987106 75.437025 -57.497864 -45.856023 1.207257 0.580740 -8.344448 -7.125000 0.000000 0.000000 76.956446 -8.603521 49.920429 -90.543636 57.505537 -54.633752 -0.568430 -1.441381 -34.818891 7.125000 0.000000 0.000000 
-0.013916 17.427358 -0.936139 1.780428 0.153517 4.334055 -25.225714 -9.987783 -9.196571 1.304382 7.158130 24.241748 -0.185697 4.834128 -12.616862 0.786500 -5.661400 -15.805000 25.056252 10.721015 -9.901402 -3.039771 -8.337077 28.283878 0.029870 -7.562761 -17.005761 -0.437300 4.243400 -11.762300 0.711543 3.235720 -1.857762 -1.452912 1.760881 -1.661492 3.784270 -6.652676 6.241366 1.881200 -3.326400 2.321300 -77.294865 8.577902 63.709277 75.035092 -57.449383 -45.481872 1.213466 0.581500 -8.241062 -7.125000 0.000000 0.000000 76.871342 -8.319693 49.654675 -90.097234 57.561892 -54.228083 -0.580641 -1.441382 -34.518800 7.125000 0.000000 0.000000 
-0.012942 17.427845 -0.937598 1.838824 0.192525 4.325376 -25.296443 -10.006666 -9.186574 1.304953 7.159171 24.248392 -0.146761 4.674845 -12.727884 0.715200 -5.404500 -15.065900 24.981326 10.673403 -9.898034 -3.038329 -8.331927 28.267528 0.017880 -7.495175 -17.023755 -0.411500 4.117700 -11.408000 0.708042 3.217971 -1.853289 -1.428762 1.750423 -1.636079 3.775819 -6.633455 6.288509 1.873400 -3.316900 2.354300 -77.247698 8.375929 63.430182 74.661305 -57.401842 -45.133074 1.207064 0.592624 -8.100007 -7.125000 0.000000 0.000000 76.752737 -8.066513 49.389625 -89.675346 57.612079 -53.846206 -0.592273 -1.439973 -34.214727 7.125000 0.000000 0.000000 
-0.013137 17.428331 -0.938961 1.812636 0.185955 4.314867 -25.262202 -9.982386 -9.186522 1.306095 7.160813 24.253986 -0.111854 4.527033 -12.818556 0.643000 -5.130000 -14.279800 25.013399 10.675498 -9.857459 -3.030609 -8.315545 28.221728 0.016805 -7.481480 -17.015508 -0.394200 4.031400 -11.165000 0.712088 3.209893 -1.853841 -1.427616 1.744858 -1.619458 3.756589 -6.628114 6.323706 1.852700 -3.313800 2.374900 -77.117072 8.234554 63.132497 74.408715 -57.367880 -44.888574 1.211597 0.601244 -8.071159 -7.125000 0.000000 0.000000 76.633654 -7.834046 49.143530 -89.247228 57.661233 -53.458727 -0.601594 -1.439254 -33.919461 7.125000 0.000000 0.000000 
-0.014208 17.427748 -0.941199 1.756455 0.190906 4.315590 -25.190286 -9.964191 -9.205407 1.305226 7.160407 24.247320 -0.118732 4.550374 -12.789057 0.641200 -5.123000 -14.259600 25.079673 10.757733 -9.851014 -3.019857 -8.300196 28.171068 0.016214 -7.532623 -17.102358 -0.377100 3.944000 -10.919300 0.728589 3.211284 -1.855393 -1.403540 1.744369 -1.609382 3.750024 -6.641507 6.296956 1.847700 -3.320200 2.356500 -77.008857 8.043218 62.853209 74.046890 -57.320009 -44.547162 1.220985 0.610286 -8.082898 -7.125000 0.000000 0.000000 76.493711 -7.585650 48.887516 -88.753291 57.716156 -53.016613 -0.611118 -1.439301 -33.661749 7.125000 0.000000 0.000000 
-0.013818 17.426093 -0.944021 1.758158 0.213104 4.247991 -25.200999 -9.940338 -9.142512 1.306513 7.158111 24.250031 -0.130226 4.603202 -12.770349 0.681800 -5.279300 -14.706900 25.085032 10.744938 -9.788597 -3.012525 -8.284328 28.128689 0.027752 -7.627012 -17.129950 -0.397400 4.047700 -11.210800 0.732044 3.204007 -1.842937 -1.395077 1.738595 -1.598639 3.744475 -6.646915 6.273526 1.841600 -3.322200 2.348100 -76.904675 7.721512 62.540833 73.582847 -57.255046 -44.113908 1.217397 0.626869 -8.186865 -7.125000 0.000000 0.000000 76.357270 -7.293566 48.627653 -88.183433 57.777337 -52.512250 -0.624850 -1.439591 -33.455651 7.125000 0.000000 0.000000 
